<svg width="512" height="512" viewBox="0 0 512 512" fill="none" xmlns="http://www.w3.org/2000/svg">
  <!-- Background circle -->
  <circle cx="256" cy="256" r="256" fill="#963E56"/>

  <!-- Mosque dome -->
  <path d="M256 96C200 96 144 128 144 192H368C368 128 312 96 256 96Z" fill="white"/>

  <!-- People/volunteers circle formation -->
  <circle cx="256" cy="320" r="32" fill="white"/> <!-- Center person -->
  <circle cx="200" cy="290" r="28" fill="white"/> <!-- Left person -->
  <circle cx="312" cy="290" r="28" fill="white"/> <!-- Right person -->
  <circle cx="236" cy="260" r="28" fill="white"/> <!-- Top left person -->
  <circle cx="276" cy="260" r="28" fill="white"/> <!-- Top right person -->

  <!-- Connection lines between people -->
  <path d="M256 288L200 290M256 288L312 290M256 288L236 260M256 288L276 260" stroke="white" stroke-width="8"/>

  <!-- Decorative mosque elements -->
  <rect x="240" y="64" width="32" height="32" fill="white"/> <!-- Minaret -->
  <path d="M208 192C208 174.327 229.49 160 256 160C282.51 160 304 174.327 304 192" stroke="white" stroke-width="16"/> <!-- Arch -->

  <!-- Subtle pattern -->
  <circle cx="256" cy="256" r="248" fill="white" fill-opacity="0.1"/>
</svg>